<svg width="548" height="609" viewBox="0 0 548 609" fill="none" xmlns="http://www.w3.org/2000/svg">
<path d="M289.593 436.437L287.337 439.187V579.851L289.593 586.442L473 328.145L289.593 436.437Z" fill="white" fill-opacity="0.1"/>
<path d="M288.322 586.438V436.433L105.024 328.14L288.322 586.438Z" fill="white" fill-opacity="0.1"/>
<path d="M289.606 0.428162L285.602 14.0363V408.914L289.606 412.91L472.904 304.564L289.606 0.428162Z" fill="white" fill-opacity="0.1"/>
<path d="M287.034 0.428162L103.736 304.564L287.034 412.912V221.25V0.428162Z" fill="white" fill-opacity="0.1"/>
<path d="M476.656 557.987L475.896 558.914V606.335L476.656 608.556L538.486 521.479L476.656 557.987Z" fill="white" fill-opacity="0.1"/>
<path d="M476.227 608.555V557.985L414.434 521.478L476.227 608.555Z" fill="white" fill-opacity="0.1"/>
<path d="M476.66 411L475.311 415.588V548.708L476.66 550.056L538.454 513.53L476.66 411Z" fill="white" fill-opacity="0.1"/>
<path d="M475.793 411L414 513.53L475.793 550.056V485.443V411Z" fill="white" fill-opacity="0.1"/>
<path d="M52.0129 229.674L51.5417 230.248V259.624L52.0129 261L90.3141 207.059L52.0129 229.674Z" fill="white" fill-opacity="0.15"/>
<path d="M51.7474 260.999V229.673L13.469 207.058L51.7474 260.999Z" fill="white" fill-opacity="0.15"/>
<path d="M52.0155 138.621L51.1794 141.463V223.926L52.0155 224.761L90.294 202.135L52.0155 138.621Z" fill="white" fill-opacity="0.15"/>
<path d="M51.4784 138.621L13.2 202.135L51.4784 224.761V184.736V138.621Z" fill="white" fill-opacity="0.15"/>
<path d="M125.618 132.752L125.319 133.117V151.749L125.618 152.621L149.912 118.408L125.618 132.752Z" fill="white" fill-opacity="0.12"/>
<path d="M125.45 152.621V132.752L101.171 118.408L125.45 152.621Z" fill="white" fill-opacity="0.12"/>
<path d="M125.62 75L125.089 76.8025V129.107L125.62 129.636L149.899 115.285L125.62 75Z" fill="white" fill-opacity="0.12"/>
<path d="M125.279 75L101 115.285L125.279 129.636V104.249V75Z" fill="white" fill-opacity="0.12"/>
<path d="M449.075 59.0187L448.904 59.227V69.8794L449.075 70.3785L462.964 50.8178L449.075 59.0187Z" fill="white" fill-opacity="0.15"/>
<path d="M448.979 70.3782V59.0184L435.098 50.8175L448.979 70.3782Z" fill="white" fill-opacity="0.15"/>
<path d="M449.076 26L448.773 27.0305V56.9344L449.076 57.237L462.957 49.032L449.076 26Z" fill="white" fill-opacity="0.15"/>
<path d="M448.881 26L435 49.032L448.881 57.2371V42.7227V26Z" fill="white" fill-opacity="0.15"/>
<path d="M12.0581 432.066L11.9181 432.237V440.969L12.0581 441.378L23.4436 425.344L12.0581 432.066Z" fill="white" fill-opacity="0.15"/>
<path d="M11.9792 441.378V432.066L0.600464 425.344L11.9792 441.378Z" fill="white" fill-opacity="0.15"/>
<path d="M12.0588 405L11.8103 405.845V430.358L12.0588 430.606L23.4376 423.88L12.0588 405Z" fill="white" fill-opacity="0.15"/>
<path d="M11.8992 405L0.520508 423.88L11.8992 430.606V418.708V405Z" fill="white" fill-opacity="0.15"/>
<path d="M526.792 372.776L526.539 373.083V388.819L526.792 389.556L547.309 360.661L526.792 372.776Z" fill="white" fill-opacity="0.2"/>
<path d="M526.649 389.556V372.775L506.144 360.661L526.649 389.556Z" fill="white" fill-opacity="0.2"/>
<path d="M526.793 324L526.345 325.522V369.697L526.793 370.144L547.298 358.023L526.793 324Z" fill="white" fill-opacity="0.2"/>
<path d="M526.505 324L506 358.023L526.505 370.144V348.703V324Z" fill="white" fill-opacity="0.2"/>
</svg>